<svg xmlns="http://www.w3.org/2000/svg" xmlns:xlink="http://www.w3.org/1999/xlink" viewBox="0 0 740.75 778.36"><defs><style>.cls-1,.cls-7{fill:none;}.cls-2{fill:#0932b7;}.cls-3{fill:#fff200;}.cls-4{fill:#fff;}.cls-5{clip-path:url(#clip-path);}.cls-6{fill:#c40000;}.cls-7{stroke:#1b1893;stroke-miterlimit:10;stroke-width:3.34px;}</style><clipPath id="clip-path"><rect class="cls-1" x="123.74" y="43.44" width="489.87" height="96.67"/></clipPath></defs><g id="Layer_2" data-name="Layer 2"><g id="Layer_1-2" data-name="Layer 1"><path class="cls-2" d="M629.43,566.41,368.67,691.91,107.91,566.41A48.75,48.75,0,0,1,80.3,522.48V0H657V522.48A48.75,48.75,0,0,1,629.43,566.41Z"/><path class="cls-3" d="M116.12,549.35a30,30,0,0,1-16.89-26.88V18.94H638.11V522.47a30,30,0,0,1-16.9,26.88L368.67,670.89Z"/><path class="cls-2" d="M121.44,538.31a17.67,17.67,0,0,1-10-15.84V31.19H625.85V522.47a17.67,17.67,0,0,1-10,15.84l-247.23,119Z"/><path class="cls-4" d="M613.61,43.44v479a5.44,5.44,0,0,1-3,4.79L587,538.62,368.67,643.7,150.18,538.54h0l-23.41-11.27a5.42,5.42,0,0,1-3-4.79v-479Z"/><path class="cls-2" d="M587,539.73,368.67,644.81,150.18,539.65c11.21.57,16.22,3.16,26.51,8.47,16.65,8.6,39.44,20.37,80.4,20.37s63.75-11.77,80.4-20.37c11.75-6.07,16.62-8.59,31.73-8.59s20,2.52,31.76,8.59c16.64,8.6,39.44,20.37,80.4,20.37s63.74-11.77,80.4-20.37C571.67,543,576.68,540.42,587,539.73Z"/><path class="cls-1" d="M613.61,43.44v479a5.44,5.44,0,0,1-3,4.79L587,538.62,368.67,643.7,150.18,538.54h0l-23.41-11.27a5.42,5.42,0,0,1-3-4.79v-479Z"/><rect class="cls-2" x="122.01" y="140.19" width="493.32" height="10.24"/><path class="cls-2" d="M613.61,465.46v7.86a165.45,165.45,0,0,0-20.09-1.18c-35.14,0-54.14,9.82-69.41,17.7-12.66,6.54-21.8,11.26-42.73,11.26s-30.09-4.72-42.74-11.26c-15.27-7.88-34.27-17.7-69.42-17.7s-54.13,9.82-69.4,17.71c-12.66,6.53-21.8,11.25-42.73,11.25s-30.07-4.72-42.74-11.25c-15.27-7.89-34.27-17.71-69.4-17.71a161.7,161.7,0,0,0-21.21,1.33v-7.88A172.65,172.65,0,0,1,145,464.35c37,0,57,10.3,73,18.56,12.55,6.49,20.11,10.4,39.16,10.4s26.61-3.91,39.15-10.38c16-8.28,36-18.58,73-18.58s57,10.29,73,18.56c12.55,6.49,20.12,10.4,39.17,10.4s26.61-3.91,39.15-10.4c16-8.26,36-18.56,73-18.56A173.53,173.53,0,0,1,613.61,465.46Z"/><path class="cls-2" d="M613.61,482.86v35a102.8,102.8,0,0,0-20.09-1.76c-23.23,0-33.76,5.44-47.08,12.31-15.1,7.81-32.24,16.65-65.06,16.65s-50-8.84-65.07-16.65c-13.33-6.87-23.84-12.31-47.08-12.31s-33.76,5.44-47.08,12.31c-15.1,7.81-32.23,16.65-65.06,16.65s-50-8.84-65.06-16.65c-13.32-6.87-23.85-12.31-47.08-12.31a99.35,99.35,0,0,0-21.21,2V483a150.92,150.92,0,0,1,21.21-1.4c32.82,0,50,8.84,65.06,16.65,13.32,6.88,23.83,12.31,47.08,12.31s33.75-5.43,47.07-12.31c15.12-7.81,32.24-16.65,65.07-16.65s49.95,8.84,65.06,16.65c13.33,6.88,23.84,12.31,47.09,12.31s33.76-5.43,47.08-12.31c15.11-7.81,32.23-16.65,65.06-16.65A153.48,153.48,0,0,1,613.61,482.86Z"/><path class="cls-2" d="M369.49,186.36a.83.83,0,0,0-.3.23,1.13,1.13,0,0,1,.26-.25Z"/><path class="cls-2" d="M426.94,181.67c-5.74-14-28-24.42-54.58-24.42s-48.83,10.43-54.58,24.42v0s2.87,5.05,4.6,3.7l.18-.13c.85-.65,2.42-1.86,3-1.9a4.42,4.42,0,0,1,.85,1.07,7,7,0,0,0,5.53,3.69c3.19.21,4.92-1.75,6-2.91a5.36,5.36,0,0,1,1-1,3.33,3.33,0,0,1,1,1.06c.9,1.27,2.4,3.41,5.6,3.55a6.91,6.91,0,0,0,5.89-3,5.49,5.49,0,0,1,.93-1c.3.1.74.68,1,1a7,7,0,0,0,5.68,3.43,7,7,0,0,0,5.82-3.17,4.88,4.88,0,0,1,.92-1,2.15,2.15,0,0,1,.77.73,2.64,2.64,0,0,1,.23.29,7,7,0,0,0,5.74,3.3c3.21,0,4.8-2.08,5.76-3.3.06-.09.14-.19.22-.29s.14-.17.19-.25a2.36,2.36,0,0,1,.58-.48,4.88,4.88,0,0,1,.93,1,6.65,6.65,0,0,0,11.49-.26c.26-.36.68-.94,1-1a5.48,5.48,0,0,1,.94,1,6.65,6.65,0,0,0,11.48-.51c.25-.36.67-.95,1-1.06a5.36,5.36,0,0,1,1,1,7,7,0,0,0,6,2.91c3.21-.22,4.65-2.39,5.52-3.69a5,5,0,0,1,.86-1.07c.58,0,2.14,1.25,3,1.9.07,0,.13.1.19.14C424.09,186.74,427.83,183.82,426.94,181.67Zm-57.75,4.92a1.13,1.13,0,0,1,.26-.25l0,0A.83.83,0,0,0,369.19,186.59Zm44.13-5.1a3.35,3.35,0,0,1-.93,1.07,4.61,4.61,0,0,1-1-.94,7,7,0,0,0-5.89-2.93c-3.14.18-4.63,2.3-5.53,3.57-.26.36-.67,1-1,1.05a5,5,0,0,1-.95-1c-1-1.19-2.68-3.17-5.82-3.07s-4.67,2.2-5.61,3.45c-.26.34-.7.92-1,1a5.62,5.62,0,0,1-.92-1c-1-1.21-2.61-3.22-5.75-3.18h-.05a6.07,6.07,0,0,0-2,.36l-.38.15a8.49,8.49,0,0,0-3.22,2.79l-.34.45a1.29,1.29,0,0,0-.16.18h0a.57.57,0,0,1-.11.11l-.16.17s-.09.06-.12.09l-.06,0a.05.05,0,0,1,0,0,2,2,0,0,1-.39-.37l-.17-.19-.34-.45a8.58,8.58,0,0,0-3.22-2.79l-.38-.15a6.07,6.07,0,0,0-2-.36h0c-3.15,0-4.77,2-5.75,3.18a5.61,5.61,0,0,1-.93,1c-.29-.1-.72-.68-1-1-.93-1.25-2.46-3.33-5.6-3.45s-4.81,1.88-5.83,3.07a4.76,4.76,0,0,1-.94,1c-.3-.1-.7-.69-1-1.05a6.65,6.65,0,0,0-11.42-.64,5.45,5.45,0,0,1-1,.94c-.29-.11-.68-.7-.93-1.07a7.24,7.24,0,0,0-4.6-3.55,35.66,35.66,0,0,1,8.68-6.6c9.76-5.49,22.86-8.52,36.88-8.52s27.13,3,36.88,8.52a36.16,36.16,0,0,1,8.69,6.59A7.28,7.28,0,0,0,413.32,181.49Z"/><path class="cls-2" d="M369.49,186.36a.83.83,0,0,0-.3.23,1.13,1.13,0,0,1,.26-.25Z"/><path class="cls-2" d="M372.69,183.64l-.16.17s-.09.06-.12.09l-.06,0A1.13,1.13,0,0,0,372.69,183.64Z"/><path class="cls-2" d="M422.35,192.7l-.19.15c-.84.64-2.4,1.86-3,1.89a5,5,0,0,1-.86-1.07,6.66,6.66,0,0,0-11.48-.78,5.36,5.36,0,0,1-1,1c-.29-.11-.71-.7-1-1.06a6.65,6.65,0,0,0-11.48-.51,5.48,5.48,0,0,1-.94,1c-.3-.1-.72-.68-1-1A6.65,6.65,0,0,0,380,192a4.88,4.88,0,0,1-.93,1,2.36,2.36,0,0,1-.58-.48c0-.08-.13-.17-.19-.25s-.16-.2-.22-.29c-1-1.22-2.55-3.3-5.76-3.3a7,7,0,0,0-5.74,3.3,2.64,2.64,0,0,1-.23.29,2.15,2.15,0,0,1-.77.73,4.88,4.88,0,0,1-.92-1,7,7,0,0,0-5.82-3.17,7,7,0,0,0-5.68,3.43c-.24.36-.68.94-1,1a5.49,5.49,0,0,1-.93-1,6.93,6.93,0,0,0-5.89-3c-3.2.14-4.7,2.28-5.6,3.55a3.33,3.33,0,0,1-1,1.06,5.36,5.36,0,0,1-1-1c-1-1.16-2.77-3.12-6-2.91a7,7,0,0,0-5.53,3.69,4.42,4.42,0,0,1-.85,1.07c-.57,0-2.14-1.25-3-1.89-.05,0-.12-.09-.18-.14-1.73-1.35-4.6,3.7-4.6,3.7v0c5.75,14,28,24.42,54.58,24.42s48.84-10.43,54.58-24.42C427.83,194.28,424.09,191.36,422.35,192.7Zm-52.86-1,0,0a1.13,1.13,0,0,1-.26-.25A.83.83,0,0,0,369.49,191.74Zm48.44,8.43a36.16,36.16,0,0,1-8.69,6.59c-9.75,5.49-22.85,8.52-36.88,8.52s-27.12-3-36.88-8.52a35.66,35.66,0,0,1-8.68-6.6,7.24,7.24,0,0,0,4.6-3.55c.25-.37.64-1,.93-1.07a5.45,5.45,0,0,1,1,.94,6.65,6.65,0,0,0,11.42-.64c.26-.35.66-1,1-1.05a4.76,4.76,0,0,1,.94,1c1,1.19,2.69,3.17,5.83,3.07s4.67-2.2,5.6-3.45c.27-.34.7-.92,1-1a6,6,0,0,1,.93,1c1,1.21,2.6,3.22,5.75,3.18h0a6.07,6.07,0,0,0,2-.36l.38-.15a8.58,8.58,0,0,0,3.22-2.79l.34-.45.17-.19a2,2,0,0,1,.39-.37l0,0,.06,0,.12.09.16.17a.57.57,0,0,1,.11.11h0a.9.9,0,0,0,.16.18l.34.45a8.49,8.49,0,0,0,3.22,2.79l.38.15a6.07,6.07,0,0,0,2,.36H379c3.14,0,4.77-2,5.75-3.18a6,6,0,0,1,.92-1c.29.1.73.68,1,1,.94,1.25,2.47,3.33,5.61,3.45s4.81-1.88,5.82-3.07a5,5,0,0,1,.95-1c.29.1.7.7,1,1.05.9,1.27,2.39,3.39,5.53,3.57a7,7,0,0,0,5.89-2.93,4.61,4.61,0,0,1,1-.94,3.35,3.35,0,0,1,.93,1.07A7.28,7.28,0,0,0,417.93,200.17Z"/><path class="cls-2" d="M369.49,191.74a.83.83,0,0,1-.3-.23,1.13,1.13,0,0,0,.26.25Z"/><path class="cls-2" d="M372.69,194.46l-.16-.17-.12-.09-.06,0A1.13,1.13,0,0,1,372.69,194.46Z"/><path class="cls-2" d="M200.56,186.36a.83.83,0,0,0-.3.23,1.13,1.13,0,0,1,.26-.25Z"/><path class="cls-2" d="M258,181.67c-5.74-14-28-24.42-54.57-24.42s-48.84,10.43-54.58,24.42l0,0s2.87,5.05,4.6,3.7l.18-.13c.85-.65,2.42-1.86,3-1.9a4.68,4.68,0,0,1,.86,1.07,7,7,0,0,0,5.52,3.69c3.19.21,4.92-1.75,6-2.91a5.36,5.36,0,0,1,1-1c.29.11.71.7,1,1.06a6.65,6.65,0,0,0,11.48.51,5.48,5.48,0,0,1,.94-1c.3.1.73.68,1,1a6.65,6.65,0,0,0,11.49.26,4.62,4.62,0,0,1,.93-1,2.22,2.22,0,0,1,.76.73,2.64,2.64,0,0,1,.23.29,7,7,0,0,0,5.74,3.3c3.21,0,4.81-2.08,5.76-3.3a2.64,2.64,0,0,1,.23-.29c.05-.08.13-.17.19-.25a2.18,2.18,0,0,1,.57-.48,4.88,4.88,0,0,1,.93,1,6.65,6.65,0,0,0,11.49-.26c.26-.36.68-.94,1-1a5.48,5.48,0,0,1,.94,1,6.65,6.65,0,0,0,11.48-.51c.25-.36.67-.95,1-1.06a5.36,5.36,0,0,1,1,1c1,1.16,2.77,3.12,6,2.91s4.65-2.39,5.52-3.69a5,5,0,0,1,.86-1.07c.58,0,2.14,1.25,3,1.9.06,0,.12.1.19.14C255.16,186.74,258.91,183.82,258,181.67Zm-57.75,4.92a1.13,1.13,0,0,1,.26-.25l0,0A.83.83,0,0,0,200.26,186.59Zm44.13-5.1c-.24.37-.64,1-.93,1.07a5.14,5.14,0,0,1-1-.94,7,7,0,0,0-5.88-2.93c-3.15.18-4.64,2.3-5.54,3.57-.26.36-.67,1-1,1.05a5,5,0,0,1-.95-1c-1-1.19-2.68-3.17-5.82-3.07s-4.67,2.2-5.6,3.45c-.27.34-.71.92-1,1a6,6,0,0,1-.92-1c-1-1.21-2.61-3.22-5.75-3.18H210a6.07,6.07,0,0,0-2,.36l-.38.15a8.49,8.49,0,0,0-3.22,2.79l-.34.45-.16.18h0a.57.57,0,0,1-.11.11l-.16.17-.12.09-.06,0a.05.05,0,0,1,0,0,2.36,2.36,0,0,1-.39-.37l-.17-.19-.34-.45a8.58,8.58,0,0,0-3.22-2.79l-.38-.15a6.07,6.07,0,0,0-2-.36h0c-3.14,0-4.77,2-5.75,3.18a5.61,5.61,0,0,1-.93,1c-.28-.1-.72-.68-1-1-.93-1.25-2.46-3.33-5.6-3.45s-4.81,1.88-5.83,3.07a4.76,4.76,0,0,1-.94,1c-.3-.1-.7-.69-1-1.05-.9-1.27-2.39-3.39-5.54-3.57a7,7,0,0,0-5.88,2.93,5.45,5.45,0,0,1-1,.94c-.29-.11-.68-.7-.93-1.07a7.24,7.24,0,0,0-4.6-3.55,35.53,35.53,0,0,1,8.69-6.6c9.75-5.49,22.85-8.52,36.88-8.52s27.12,3,36.88,8.52a36.29,36.29,0,0,1,8.68,6.59A7.28,7.28,0,0,0,244.39,181.49Z"/><path class="cls-2" d="M200.56,186.36a.83.83,0,0,0-.3.23,1.13,1.13,0,0,1,.26-.25Z"/><path class="cls-2" d="M203.76,183.64l-.16.17-.12.09-.06,0A1,1,0,0,0,203.76,183.64Z"/><path class="cls-2" d="M253.43,192.7l-.19.15c-.85.64-2.41,1.86-3,1.89a5,5,0,0,1-.86-1.07,7,7,0,0,0-5.52-3.69c-3.19-.21-4.92,1.75-6,2.91a5.36,5.36,0,0,1-1,1c-.29-.11-.71-.7-1-1.06a6.65,6.65,0,0,0-11.48-.51,5.48,5.48,0,0,1-.94,1c-.3-.1-.72-.68-1-1A6.65,6.65,0,0,0,211.1,192a4.88,4.88,0,0,1-.93,1,2.18,2.18,0,0,1-.57-.48c-.06-.08-.14-.17-.19-.25a2.64,2.64,0,0,1-.23-.29c-1-1.22-2.55-3.3-5.76-3.3a7,7,0,0,0-5.74,3.3,2.64,2.64,0,0,1-.23.29,2.22,2.22,0,0,1-.76.73,4.62,4.62,0,0,1-.93-1,6.65,6.65,0,0,0-11.49.26c-.25.36-.68.94-1,1a5.48,5.48,0,0,1-.94-1,6.65,6.65,0,0,0-11.48.51c-.25.36-.67,1-1,1.06a5.36,5.36,0,0,1-1-1c-1-1.16-2.77-3.12-6-2.91a7,7,0,0,0-5.52,3.69,4.68,4.68,0,0,1-.86,1.07c-.57,0-2.14-1.25-3-1.89-.05,0-.12-.09-.18-.14-1.73-1.35-4.6,3.7-4.6,3.7l0,0c5.74,14,28,24.42,54.58,24.42s48.83-10.43,54.57-24.42C258.91,194.28,255.16,191.36,253.43,192.7Zm-52.87-1,0,0a1.13,1.13,0,0,1-.26-.25A.83.83,0,0,0,200.56,191.74ZM249,200.17a36.29,36.29,0,0,1-8.68,6.59c-9.76,5.49-22.86,8.52-36.88,8.52s-27.13-3-36.88-8.52a35.53,35.53,0,0,1-8.69-6.6,7.24,7.24,0,0,0,4.6-3.55c.25-.37.64-1,.93-1.07a5.45,5.45,0,0,1,1,.94,7,7,0,0,0,5.88,2.93c3.15-.18,4.64-2.3,5.54-3.57.26-.35.66-1,1-1.05a4.76,4.76,0,0,1,.94,1c1,1.19,2.69,3.17,5.83,3.07s4.67-2.2,5.6-3.45c.27-.34.71-.92,1-1a6,6,0,0,1,.93,1c1,1.21,2.61,3.22,5.75,3.18h0a6.07,6.07,0,0,0,2-.36l.38-.15a8.58,8.58,0,0,0,3.22-2.79l.34-.45.17-.19a2.36,2.36,0,0,1,.39-.37l0,0,.06,0,.12.09.16.17a.57.57,0,0,1,.11.11h0a1.37,1.37,0,0,0,.16.18l.34.45A8.49,8.49,0,0,0,207.6,198l.38.15a6.07,6.07,0,0,0,2,.36h.05c3.14,0,4.77-2,5.75-3.18a6.49,6.49,0,0,1,.92-1c.29.1.73.68,1,1,.93,1.25,2.46,3.33,5.6,3.45s4.81-1.88,5.82-3.07a5,5,0,0,1,.95-1c.29.1.7.7,1,1.05.9,1.27,2.39,3.39,5.54,3.57a7,7,0,0,0,5.88-2.93,5.14,5.14,0,0,1,1-.94c.29.11.69.7.93,1.07A7.28,7.28,0,0,0,249,200.17Z"/><path class="cls-2" d="M200.56,191.74a.83.83,0,0,1-.3-.23,1.13,1.13,0,0,0,.26.25Z"/><path class="cls-2" d="M203.76,194.46l-.16-.17-.12-.09-.06,0A1,1,0,0,1,203.76,194.46Z"/><path class="cls-2" d="M539,186.36a.83.83,0,0,0-.3.23,1.41,1.41,0,0,1,.25-.25Z"/><path class="cls-2" d="M596.44,181.67c-5.75-14-28-24.42-54.58-24.42S493,167.68,487.28,181.67v0s2.86,5.05,4.6,3.7l.18-.13a11.51,11.51,0,0,1,3-1.9,4.2,4.2,0,0,1,.86,1.07,7,7,0,0,0,5.53,3.69c3.18.21,4.92-1.75,6-2.91a5,5,0,0,1,.95-1,3.35,3.35,0,0,1,1,1.06,7,7,0,0,0,5.59,3.55c3.21.15,4.89-1.84,5.9-3a5.15,5.15,0,0,1,.93-1c.3.1.74.68,1,1a7,7,0,0,0,5.68,3.43,7,7,0,0,0,5.82-3.17,4.62,4.62,0,0,1,.92-1,2.32,2.32,0,0,1,.77.73,1.71,1.71,0,0,1,.22.29c.95,1.22,2.56,3.3,5.75,3.3s4.8-2.08,5.76-3.3a1.71,1.71,0,0,1,.22-.29c.06-.08.14-.17.19-.25a2,2,0,0,1,.58-.48,4.62,4.62,0,0,1,.92,1,6.66,6.66,0,0,0,11.5-.26c.26-.36.68-.94,1-1a5.48,5.48,0,0,1,.94,1,6.65,6.65,0,0,0,11.48-.51,3.35,3.35,0,0,1,1-1.06,5.36,5.36,0,0,1,1,1,6.66,6.66,0,0,0,11.48-.78,4.68,4.68,0,0,1,.86-1.07c.58,0,2.14,1.25,3,1.9.07,0,.13.1.19.14C593.59,186.74,597.33,183.82,596.44,181.67Zm-57.75,4.92a1.41,1.41,0,0,1,.25-.25l0,0A.83.83,0,0,0,538.69,186.59Zm44.13-5.1c-.25.37-.65,1-.94,1.07a5.14,5.14,0,0,1-1-.94,7,7,0,0,0-5.88-2.93c-3.14.18-4.63,2.3-5.53,3.57-.26.36-.67,1-1,1.05a5,5,0,0,1-.95-1c-1-1.19-2.68-3.17-5.82-3.07s-4.67,2.2-5.61,3.45c-.26.34-.7.92-1,1a5.62,5.62,0,0,1-.92-1c-1-1.21-2.61-3.22-5.75-3.18h-.06a6.06,6.06,0,0,0-2,.36l-.38.15a8.49,8.49,0,0,0-3.22,2.79c-.1.14-.22.29-.35.45s-.11.12-.15.18h0a.63.63,0,0,1-.12.11c0,.07-.11.12-.15.17l-.12.09-.06,0a.05.05,0,0,1,0,0,2,2,0,0,1-.39-.37c-.06-.07-.12-.12-.17-.19s-.25-.31-.35-.45a8.42,8.42,0,0,0-3.22-2.79l-.37-.15a6.12,6.12,0,0,0-2-.36h-.06c-3.14,0-4.76,2-5.74,3.18a5.61,5.61,0,0,1-.93,1c-.29-.1-.72-.68-1-1-.94-1.25-2.46-3.33-5.6-3.45s-4.82,1.88-5.83,3.07a5,5,0,0,1-1,1c-.3-.1-.7-.69-.95-1.05-.91-1.27-2.4-3.39-5.54-3.57a7,7,0,0,0-5.88,2.93,5.45,5.45,0,0,1-1,.94c-.29-.11-.68-.7-.94-1.07a7.24,7.24,0,0,0-4.6-3.55,35.92,35.92,0,0,1,8.69-6.6c9.76-5.49,22.86-8.52,36.88-8.52s27.12,3,36.88,8.52a36.36,36.36,0,0,1,8.69,6.59A7.28,7.28,0,0,0,582.82,181.49Z"/><path class="cls-2" d="M539,186.36a.83.83,0,0,0-.3.23,1.41,1.41,0,0,1,.25-.25Z"/><path class="cls-2" d="M542.18,183.64c0,.07-.11.12-.15.17l-.12.09-.06,0A1,1,0,0,0,542.18,183.64Z"/><path class="cls-2" d="M591.85,192.7l-.19.15c-.84.64-2.4,1.86-3,1.89a4.68,4.68,0,0,1-.86-1.07,6.66,6.66,0,0,0-11.48-.78,5.36,5.36,0,0,1-1,1,3.35,3.35,0,0,1-1-1.06,6.65,6.65,0,0,0-11.48-.51,5.48,5.48,0,0,1-.94,1c-.3-.1-.72-.68-1-1a6.66,6.66,0,0,0-11.5-.26,4.62,4.62,0,0,1-.92,1,2,2,0,0,1-.58-.48c0-.08-.13-.17-.19-.25a1.71,1.71,0,0,1-.22-.29c-1-1.22-2.55-3.3-5.76-3.3s-4.8,2.08-5.75,3.3a1.71,1.71,0,0,1-.22.29,2.32,2.32,0,0,1-.77.73,4.62,4.62,0,0,1-.92-1,7,7,0,0,0-5.82-3.17,7,7,0,0,0-5.68,3.43c-.24.36-.68.94-1,1a5.15,5.15,0,0,1-.93-1c-1-1.19-2.69-3.19-5.9-3a7,7,0,0,0-5.59,3.55,3.35,3.35,0,0,1-1,1.06,5,5,0,0,1-.95-1c-1-1.16-2.78-3.12-6-2.91a7,7,0,0,0-5.53,3.69,4.2,4.2,0,0,1-.86,1.07c-.56,0-2.13-1.25-3-1.89l-.18-.14c-1.74-1.35-4.6,3.7-4.6,3.7v0c5.75,14,28,24.42,54.58,24.42s48.83-10.43,54.58-24.42C597.33,194.28,593.59,191.36,591.85,192.7Zm-52.86-1,0,0a1.41,1.41,0,0,1-.25-.25A.83.83,0,0,0,539,191.74Zm48.44,8.43a36.36,36.36,0,0,1-8.69,6.59c-9.76,5.49-22.85,8.52-36.88,8.52s-27.12-3-36.88-8.52a35.92,35.92,0,0,1-8.69-6.6,7.24,7.24,0,0,0,4.6-3.55c.26-.37.65-1,.94-1.07a5.45,5.45,0,0,1,1,.94,7,7,0,0,0,5.88,2.93c3.14-.18,4.63-2.3,5.54-3.57.25-.35.65-1,.95-1.05a5,5,0,0,1,1,1c1,1.19,2.69,3.17,5.83,3.07s4.66-2.2,5.6-3.45c.27-.34.7-.92,1-1a6,6,0,0,1,.93,1c1,1.21,2.6,3.22,5.74,3.18h.06a6.12,6.12,0,0,0,2-.36l.37-.15a8.42,8.42,0,0,0,3.22-2.79c.1-.14.23-.29.35-.45s.11-.12.17-.19a2,2,0,0,1,.39-.37l0,0,.06,0,.12.09c0,.05.1.1.15.17a.63.63,0,0,1,.12.11h0a1.3,1.3,0,0,0,.15.18c.13.16.25.31.35.45A8.49,8.49,0,0,0,546,198l.38.15a6.06,6.06,0,0,0,2,.36h.06c3.14,0,4.77-2,5.75-3.18a6,6,0,0,1,.92-1c.29.1.73.68,1,1,.94,1.25,2.46,3.33,5.61,3.45s4.81-1.88,5.82-3.07a5,5,0,0,1,.95-1c.29.1.7.7,1,1.05.9,1.27,2.39,3.39,5.53,3.57a7,7,0,0,0,5.88-2.93,5.14,5.14,0,0,1,1-.94c.29.11.69.7.94,1.07A7.28,7.28,0,0,0,587.43,200.17Z"/><path class="cls-2" d="M539,191.74a.83.83,0,0,1-.3-.23,1.41,1.41,0,0,0,.25.25Z"/><path class="cls-2" d="M542.18,194.46c0-.07-.11-.12-.15-.17l-.12-.09-.06,0A1,1,0,0,1,542.18,194.46Z"/><g class="cls-5"><rect class="cls-6" x="364.77" y="-195.68" width="7.8" height="663.77"/><rect class="cls-6" x="364.77" y="-195.68" width="7.8" height="663.77" transform="translate(-22.69 100.06) rotate(-15)"/><rect class="cls-6" x="364.77" y="-195.68" width="7.8" height="663.77" transform="translate(-18.71 202.58) rotate(-30)"/><rect class="cls-6" x="364.77" y="-195.68" width="7.8" height="663.77" transform="translate(11.67 300.58) rotate(-45)"/><rect class="cls-6" x="364.77" y="-195.68" width="7.8" height="663.77" transform="translate(66.38 387.38) rotate(-60)"/><rect class="cls-6" x="364.77" y="-195.68" width="7.8" height="663.77" transform="translate(141.69 457.06) rotate(-75)"/><rect class="cls-6" x="36.78" y="132.31" width="663.77" height="7.8"/><rect class="cls-6" x="36.78" y="132.31" width="663.77" height="7.8" transform="translate(-22.69 100.1) rotate(-15.01)"/><rect class="cls-6" x="36.78" y="132.31" width="663.77" height="7.8" transform="translate(-18.71 202.57) rotate(-30)"/><rect class="cls-6" x="36.78" y="132.31" width="663.77" height="7.8" transform="translate(11.67 300.58) rotate(-45)"/><rect class="cls-6" x="36.78" y="132.31" width="663.77" height="7.8" transform="translate(66.38 387.39) rotate(-60)"/><rect class="cls-6" x="36.78" y="132.31" width="663.77" height="7.8" transform="translate(141.66 457.04) rotate(-74.99)"/><circle class="cls-6" cx="370.06" cy="141.29" r="58.97"/><circle class="cls-3" cx="370.06" cy="141.29" r="52.29"/></g><path class="cls-2" d="M542.81,242.33c-1,.14-2,.28-3,.37h0c-.61.06-1.21.12-1.82.15s-1.11.09-1.67.11-1.11.06-1.67.07c-.77,0-1.53,0-2.3,0t0,0c-.44,0-.89,0-1.35,0a.67.67,0,0,1-.2,0h0c-.49,0-1,0-1.46,0s-1.11,0-1.67-.07c-1.1-.05-2.22-.12-3.33-.21h0l-.19,0c-.56-.05-1.11-.09-1.67-.16l-1.52-.14-.15,0c-1.57-.17-3.15-.37-4.75-.58l-1.67-.25-.6-.1h0l-1-.15-1.87-.31-.1,0c-.74-.12-1.47-.25-2.22-.39h0c-1.61-.28-3.23-.58-4.87-.9l-1.14-.22h0l-4.35-.88h0c-3.07-.63-6.14-1.28-9.27-2-8.71-1.85-17.67-3.73-26.79-5.1-5.12-.77-10.31-1.38-15.54-1.73h0c-4.14-.28-8.3-.39-12.49-.28-20.83.49-42.1,6.25-63,23.27,0,0,0,0,0,0-.54.45-1.1.9-1.64,1.36a0,0,0,0,1,0,0h0V425.74h0v0l1.11-1.05c.19-.18.37-.35.56-.5,30.53-28.1,62.56-20.59,90.86-14,19.48,4.57,37.88,8.88,53.25,1.08l.91-.47V359l4.75,41.84v14.74H524V369.44l3.54,34.22V419.8h3.34V362.19l3.68,43.68v19.85h3.34V357.38l3.2,47.69V430h3.34V242.05Zm-173.55,205v0h0S369.26,447.33,369.26,447.33Zm0,0a0,0,0,0,0,0,0h0Zm0,12.05h0Z"/><path class="cls-4" d="M369.23,447.31v0a0,0,0,0,0,0,0ZM542.81,253.57c-.56.08-1.12.13-1.67.19-1,.11-2.12.2-3.2.27l-1.67.08c-.55,0-1.1,0-1.67.06-.76,0-1.54,0-2.32,0h-1.36l-1.67,0c-.55,0-1.11,0-1.67-.07-1.18,0-2.36-.12-3.54-.21-.56,0-1.11-.08-1.67-.13l-.58-.06-1.09-.1c-1.57-.15-3.15-.34-4.75-.56-.55-.06-1.11-.14-1.67-.22l-1.67-.24c-.22,0-.46-.07-.68-.12-2.72-.4-5.46-.88-8.22-1.4-5.41-1-10.91-2.16-16.53-3.35-16.39-3.48-33.35-7.07-50.26-7.07-3,0-6,0-9,0-16.08.19-32.22,2.34-57,21.75l0,0c-.54.41-1.09.86-1.64,1.29,0,0,0,0,0,0h0v162h0v0l1.11-1.05c.19-.18.37-.35.56-.5,30.53-28.1,62.56-20.59,90.86-14,19.48,4.57,37.88,8.88,53.25,1.08l.91-.47V359l4.75,41.84v14.74H524V369.44l3.54,34.22V419.8h3.34V362.19l3.68,43.68v19.85h3.34V357.38l3.2,47.69V430h3.34V253.33Z"/><path class="cls-4" d="M545.79,253.13V436c-7.07,3-14.94,4.46-24.52,4.46-12.29,0-25.63-2.39-39.76-4.9-16.09-2.87-32.75-5.84-50.28-5.84-18.51,0-41.92,3.22-62,17.56h0c-20.05-14.34-43.46-17.56-62-17.56-17.53,0-34.19,3-50.28,5.84-14.13,2.51-27.47,4.9-39.76,4.9-9.57,0-17.45-1.43-24.52-4.46V253.13c.43.08.87.15,1.31.2V430h3.34V405.07l3.2-47.69v68.34h3.34V405.87l3.68-43.68V419.8h3.34V403.66l3.54-34.22v46.11h3.34V400.81l4.75-41.87v51.87l.91.47c15.37,7.8,33.77,3.49,53.25-1.08,28.3-6.62,60.33-14.13,90.86,14,.19.15.37.32.56.5l1.11,1.05v0h0v0l1.11-1.05c.19-.18.37-.35.56-.5,30.53-28.1,62.56-20.59,90.86-14,19.48,4.57,37.88,8.88,53.25,1.08l.91-.47V359l4.75,41.84v14.74H524V369.44l3.54,34.22V419.8h3.34V362.19l3.68,43.68v19.85h3.34V357.38l3.2,47.69V430h3.34V253.33C544.92,253.28,545.36,253.21,545.79,253.13Z"/><path class="cls-7" d="M402.79,256.87C455.12,208,510.86,262,547.84,243.23V436.52"/><path class="cls-4" d="M542.81,241.33V430l-1.67-24.91-3.2-47.69-1.67-24.93-1.67-24.91L531,254.19l-.1-1.49-.35-5.37-.16-2.27.51-.08c1.24-.17,2.46-.39,3.68-.68.56-.13,1.11-.27,1.67-.43s1.11-.33,1.67-.53,1.21-.41,1.82-.64h0C540.79,242.29,541.81,241.84,542.81,241.33Z"/><path class="cls-2" d="M544.48,238.61V430h-3.34v-186a32.14,32.14,0,0,1-3.2,1.17c-.55.18-1.1.35-1.67.49s-1.1.29-1.67.42a35.73,35.73,0,0,1-3.68.65,1.57,1.57,0,0,1-.3.05l-.42-3.32.72-.11c.46-.06.91-.14,1.35-.23t0,0c.78-.13,1.55-.28,2.3-.47.57-.14,1.12-.29,1.67-.45s1.12-.34,1.67-.53a35.52,35.52,0,0,0,4.11-1.76Z"/><path class="cls-4" d="M536.27,239.05V425.72l-1.67-19.85-3.68-43.68-1.67-19.86-1.67-19.85L524,280.4l-1.67-19.86-.58-6.85-.57-6.75-.18-2.2-.14-1.64v0l1.47-.13c.56,0,1.11-.12,1.67-.2l.19,0h0c1.13-.16,2.24-.36,3.33-.59.56-.12,1.12-.27,1.67-.41s1.13-.31,1.67-.49A35.79,35.79,0,0,0,536.27,239.05Z"/><path class="cls-2" d="M537.94,236.34V425.72H534.6V241.67a37.33,37.33,0,0,1-3.68,1.32l-.2,0s0,0,0,0a42.5,42.5,0,0,1-3.13.79,33.5,33.5,0,0,1-3.54.6c-.55.08-1.1.15-1.67.19s-.88.08-1.33.12h0l-.11-1.64v0l0-.67-.06-1c.53,0,1.05-.08,1.58-.14s1.12-.12,1.67-.21a33.53,33.53,0,0,0,3.54-.65c.57-.12,1.13-.25,1.67-.41s1.13-.33,1.67-.51a32.69,32.69,0,0,0,4.59-1.93Z"/><path class="cls-4" d="M529.25,235.77v184l-1.67-16.14L524,369.44l-3.34-32.28L516,291.33l-3.34-32.28-.68-6.6-.73-7-.39-3.85-.07-.57-.07-.66,0-.44c.67,0,1.32,0,2,0l1.09-.07.58,0c.56,0,1.12-.09,1.67-.16a44,44,0,0,0,4.75-.78c.57-.12,1.12-.27,1.67-.42s1.11-.31,1.67-.49A35.92,35.92,0,0,0,529.25,235.77Z"/><path class="cls-2" d="M530.92,233V419.8h-3.34V238.38a35.47,35.47,0,0,1-3.54,1.28c-.55.17-1.1.33-1.67.48s-1.1.26-1.67.39a46.65,46.65,0,0,1-4.75.75c-.54.06-1.11.11-1.67.15l-.6,0h0l-.21,0-.46,0h-.38c-.59,0-1.19,0-1.8,0h-.17v-3.34c.68,0,1.34,0,2,0l.91-.05.76,0c.57-.05,1.13-.1,1.67-.17a40.09,40.09,0,0,0,6.42-1.25c.57-.17,1.12-.33,1.67-.52a34.48,34.48,0,0,0,4.45-1.87Z"/><path class="cls-4" d="M522.37,235V415.55l-1.67-14.74L516,359l-1.67-14.73-1.67-14.74-8.9-78.45-.83-7.37-.33-2.87-.11-.95,0-.39,0-.28v-.05c1.47,0,2.93,0,4.37-.09h0c1.3-.07,2.6-.21,3.88-.4.67-.09,1.33-.2,2-.33l.91-.19.76-.17c.56-.13,1.13-.28,1.67-.44A36.46,36.46,0,0,0,522.37,235Z"/><path class="cls-2" d="M524,232.29V415.55H520.7V237.63a40.85,40.85,0,0,1-4.75,1.63c-.54.14-1.1.29-1.67.41l-.58.12c-.35.09-.72.16-1.09.23-.63.12-1.28.23-1.94.32h0c-.73.11-1.46.19-2.21.25h0a50.86,50.86,0,0,1-5.86.22h-.21v-1.67l0-1v-.71c1.4,0,2.76,0,4.07-.07a42,42,0,0,0,7.81-1.16c.57-.14,1.13-.29,1.67-.46a33.38,33.38,0,0,0,5.66-2.25Z"/><path class="cls-4" d="M514.28,234.52V409.79c-37,18.77-92.72-35.27-145,13.65V248.17C421.56,199.26,477.3,253.29,514.28,234.52Z"/><path class="cls-2" d="M513.68,241.46h0l-.21,0c-.16,0-.3,0-.46,0h-.38v4.16l1.67.29v-4.41Zm-.16-8.43c-7.43,3.76-15.81,4.45-24.8,3.61-8.3-.77-17.11-2.83-26.18-5l-.61-.14c-28.77-6.74-61.27-14.11-92.68,14.35-.38.34-.77.69-1.15,1.05L368,247l-.45.41V424.17c.19.15.37.32.56.5l1.11,1.05v0l0,0,1.11-1.05c.19-.18.37-.35.56-.5,30.53-28.1,62.56-20.59,90.86-14,19.48,4.57,37.88,8.88,53.25,1.08l.91-.47v-179Zm-.91,175.71c-14.12,6.63-31.59,2.54-50.07-1.79-28.4-6.66-60.5-14.18-91.61,12.72l0,0V248.89l0,0c20.84-19.17,42.38-21.74,63-19.34,9.56,1.12,18.92,3.31,27.9,5.4,2.88.68,5.74,1.35,8.57,2,5.08,1.13,10.05,2.1,14.91,2.72h0a65.51,65.51,0,0,0,17,.24h.09l1.1-.17c1.07-.17,2.14-.38,3.19-.64h0a36.91,36.91,0,0,0,5.87-1.91Zm1.07-167.28h0l-.21,0c-.16,0-.3,0-.46,0h-.38v4.16l1.67.29v-4.41Z"/><rect class="cls-2" x="173.39" y="253.13" width="11.94" height="10.48"/><rect class="cls-4" x="177.84" y="253.14" width="6.02" height="10.48" transform="translate(-77.52 439.23) rotate(-90)"/><circle class="cls-2" cx="167.04" cy="258.37" r="9.43"/><path class="cls-4" d="M167,265a6.66,6.66,0,1,1,6.65-6.66A6.66,6.66,0,0,1,167,265Z"/><rect class="cls-2" x="173.39" y="280.44" width="11.94" height="10.48"/><rect class="cls-4" x="177.84" y="280.44" width="6.02" height="10.48" transform="translate(-104.83 466.53) rotate(-90)"/><circle class="cls-2" cx="167.04" cy="285.68" r="9.43"/><path class="cls-4" d="M167,292.34a6.66,6.66,0,1,1,6.65-6.66A6.66,6.66,0,0,1,167,292.34Z"/><rect class="cls-2" x="173.39" y="307.75" width="11.94" height="10.48"/><rect class="cls-4" x="177.84" y="307.75" width="6.02" height="10.48" transform="translate(-132.13 493.84) rotate(-90)"/><circle class="cls-2" cx="167.04" cy="312.98" r="9.43"/><path class="cls-4" d="M167,319.64a6.66,6.66,0,1,1,6.65-6.66A6.66,6.66,0,0,1,167,319.64Z"/><rect class="cls-2" x="173.39" y="335.05" width="11.94" height="10.48"/><rect class="cls-4" x="177.84" y="335.05" width="6.02" height="10.48" transform="translate(-159.44 521.14) rotate(-90)"/><circle class="cls-2" cx="167.04" cy="340.29" r="9.43"/><path class="cls-4" d="M167,347a6.66,6.66,0,1,1,6.65-6.66A6.66,6.66,0,0,1,167,347Z"/><rect class="cls-2" x="173.39" y="362.36" width="11.94" height="10.48"/><rect class="cls-4" x="177.84" y="362.36" width="6.02" height="10.48" transform="translate(-186.74 548.45) rotate(-90)"/><circle class="cls-2" cx="167.04" cy="367.6" r="9.43"/><path class="cls-4" d="M167,374.25a6.66,6.66,0,1,1,6.65-6.65A6.66,6.66,0,0,1,167,374.25Z"/><rect class="cls-2" x="173.39" y="389.66" width="11.94" height="10.48"/><rect class="cls-4" x="177.84" y="389.66" width="6.02" height="10.48" transform="translate(-214.05 575.75) rotate(-90)"/><circle class="cls-2" cx="167.04" cy="394.9" r="9.43"/><path class="cls-4" d="M167,401.56a6.66,6.66,0,1,1,6.65-6.66A6.66,6.66,0,0,1,167,401.56Z"/><rect class="cls-2" x="173.39" y="416.97" width="11.94" height="10.48"/><rect class="cls-4" x="177.84" y="416.97" width="6.02" height="10.48" transform="translate(-241.35 603.06) rotate(-90)"/><circle class="cls-2" cx="167.04" cy="422.21" r="9.43"/><path class="cls-4" d="M167,428.87a6.66,6.66,0,1,1,6.65-6.66A6.66,6.66,0,0,1,167,428.87Z"/><path class="cls-2" d="M556.93,246.61V439.43c0,2.52-1.71,4.47-4,5.58-50.57,24.69-116.57-31-183.68,14.36h0C302.12,414,236.12,469.7,185.55,445c-2.28-1.11-4-3.06-4-5.58V246.61a5.86,5.86,0,0,1,7.36-5.71,51.36,51.36,0,0,0,5.09,1.15v11.28c-.44-.05-.88-.12-1.31-.2V436c7.07,3,15,4.46,24.52,4.46,12.29,0,25.63-2.39,39.76-4.9,16.09-2.87,32.75-5.84,50.28-5.84,18.51,0,41.92,3.22,62,17.56v0a0,0,0,0,0,0,0s0,0,0,0v0c20.05-14.34,43.46-17.56,62-17.56,17.53,0,34.19,3,50.28,5.84,14.13,2.51,27.47,4.9,39.76,4.9,9.58,0,17.45-1.43,24.52-4.46V253.13c-.43.08-.87.15-1.31.2V242.05a50.73,50.73,0,0,0,5.09-1.15A5.86,5.86,0,0,1,556.93,246.61Z"/><path class="cls-2" d="M369.23,447.31h0a0,0,0,0,1,0,0Z"/><path class="cls-2" d="M369.26,254.19V425.74h0v0l-1.11-1.05c-.19-.18-.37-.35-.56-.5-30.53-28.1-62.56-20.59-90.86-14-19.48,4.57-37.88,8.88-53.25,1.08l-.91-.47V358.94l-4.75,41.87v14.74h-3.34V369.44l-3.54,34.22V419.8h-3.34V362.19l-3.68,43.68v19.85h-3.34V357.38l-3.2,47.69V430H194V242.05l1.67.28c1,.14,2,.28,3,.37h0c.61.06,1.21.12,1.82.15s1.11.09,1.67.11,1.11.06,1.67.07c.77,0,1.53,0,2.3,0t0,0c.45,0,.89,0,1.35,0a.67.67,0,0,0,.2,0h0c.49,0,1,0,1.46,0s1.11,0,1.67-.07c1.1-.05,2.22-.12,3.33-.21h0l.19,0c.56-.05,1.11-.09,1.67-.16l1.52-.14.15,0c1.57-.17,3.15-.37,4.75-.58l1.67-.25.6-.1h0l1-.15,1.87-.31.1,0c.74-.12,1.47-.25,2.22-.39h0c1.61-.28,3.23-.58,4.87-.9l1.13-.22h0l4.35-.88h0c3.07-.63,6.15-1.29,9.28-2,8.71-1.85,17.66-3.73,26.78-5.1,5.12-.77,10.31-1.38,15.54-1.73h0c4.14-.28,8.3-.39,12.49-.28,20.83.49,42.1,6.25,63,23.27,0,0,0,0,0,0,.54.45,1.1.9,1.64,1.36,0,0,0,0,0,0Z"/><path class="cls-2" d="M369.25,447.31h0v0S369.25,447.33,369.25,447.31Z"/><path class="cls-2" d="M369.25,459.37h0Z"/><path class="cls-4" d="M369.26,263.73v162h0v0l-1.11-1.05c-.19-.18-.37-.35-.56-.5-30.53-28.1-62.56-20.59-90.86-14-19.48,4.57-37.88,8.88-53.25,1.08l-.91-.47V358.94l-4.75,41.87v14.74h-3.34V369.44l-3.54,34.22V419.8h-3.34V362.19l-3.68,43.68v19.85h-3.34V357.38l-3.2,47.69V430H194V253.33l1.67.24c.56.08,1.12.13,1.67.19,1.05.11,2.12.2,3.2.27l1.67.08c.55,0,1.1,0,1.67.06.76,0,1.54,0,2.32,0h1.36l1.67,0c.56,0,1.11,0,1.67-.07,1.18,0,2.36-.12,3.54-.21.56,0,1.11-.08,1.67-.13l.58-.06,1.09-.1c1.57-.15,3.15-.34,4.75-.56.55-.06,1.11-.14,1.67-.22l1.67-.24c.22,0,.46-.07.68-.12,2.72-.4,5.45-.86,8.21-1.39,5.41-1,10.93-2.17,16.54-3.36,16.4-3.48,33.35-7.07,50.26-7.07,3,0,6,0,9,0,16.08.19,32.22,2.34,57,21.75l0,0c.54.41,1.09.86,1.64,1.29a0,0,0,0,0,0,0Z"/><path class="cls-4" d="M369.26,447.31v0s0,0,0,0Z"/><path class="cls-7" d="M335.7,256.87c-52.33-48.91-108.07,5.13-145-13.64V436.52"/><path class="cls-4" d="M208.08,245.06l-.16,2.27-.35,5.37-.1,1.49-3.58,53.35-1.67,24.91-1.67,24.93-3.2,47.69L195.68,430V241.33c1,.51,2,1,3,1.37h0c.61.23,1.21.45,1.82.64s1.1.37,1.67.53,1.1.3,1.67.43a36.76,36.76,0,0,0,3.68.68Z"/><path class="cls-2" d="M208.29,243.4l-.42,3.32a1.57,1.57,0,0,1-.3-.05,35.73,35.73,0,0,1-3.68-.65c-.57-.13-1.12-.26-1.67-.42s-1.12-.31-1.67-.49a32.14,32.14,0,0,1-3.2-1.17V430H194V238.61l2.43,1.24a35.52,35.52,0,0,0,4.11,1.76c.55.19,1.1.36,1.67.53s1.1.31,1.67.45c.75.19,1.52.34,2.3.47t0,0c.45.09.89.17,1.35.23Z"/><path class="cls-4" d="M217.59,243.08v0l-.14,1.64-.18,2.2-.57,6.75-.58,6.85-1.67,19.86-3.54,42.08-1.67,19.85-1.67,19.86-3.68,43.68-1.67,19.85V239.05a35.79,35.79,0,0,0,5.35,2.19c.54.18,1.11.34,1.67.49s1.11.29,1.67.41c1.09.23,2.2.43,3.33.59h0l.19,0c.56.08,1.11.15,1.67.2Z"/><path class="cls-2" d="M217.7,241.41l-.06,1,0,.67v0l-.11,1.64h0c-.45,0-.89-.07-1.33-.12s-1.12-.11-1.67-.19a33.5,33.5,0,0,1-3.54-.6,42.5,42.5,0,0,1-3.13-.79s0,0,0,0l-.2,0a37.33,37.33,0,0,1-3.68-1.32V425.72h-3.34V236.34l2.43,1.22a32.69,32.69,0,0,0,4.59,1.93c.54.18,1.1.36,1.67.51s1.1.29,1.67.41a33.53,33.53,0,0,0,3.54.65c.55.09,1.1.16,1.67.21S217.17,241.37,217.7,241.41Z"/><path class="cls-4" d="M227.86,239.9l0,.44-.07.66-.07.57-.39,3.85-.73,7-.68,6.6-3.34,32.28-4.75,45.83-3.34,32.28-3.54,34.22-1.67,16.14v-184a35.92,35.92,0,0,0,5.21,2.14c.56.18,1.1.34,1.67.49s1.1.3,1.67.42a44,44,0,0,0,4.75.78c.55.07,1.11.11,1.67.16l.58,0,1.09.07C226.54,239.88,227.19,239.9,227.86,239.9Z"/><path class="cls-2" d="M227.87,238.23v3.34h-.17c-.61,0-1.21,0-1.8,0-.35,0-.7,0-1-.06h0l-.6,0c-.56,0-1.13-.09-1.67-.15a46.65,46.65,0,0,1-4.75-.75c-.57-.13-1.12-.25-1.67-.39s-1.12-.31-1.67-.48a35.47,35.47,0,0,1-3.54-1.28V419.8h-3.34V233l2.43,1.24a34.48,34.48,0,0,0,4.45,1.87c.55.19,1.1.35,1.67.52a40.09,40.09,0,0,0,6.42,1.25c.54.07,1.1.12,1.67.17l.76,0,.91.05C226.53,238.21,227.19,238.23,227.87,238.23Z"/><path class="cls-4" d="M236.12,239.14l0,.33,0,.39-.11.95-.33,2.87-.83,7.38-8.89,78.4-1.67,14.74-1.67,14.74-4.75,41.87-1.67,14.74V235a36.46,36.46,0,0,0,6.42,2.5c.54.16,1.11.31,1.67.44l.76.17.91.19c.66.13,1.32.24,2,.33,1.28.19,2.58.33,3.88.4h0C233.2,239.13,234.65,239.17,236.12,239.14Z"/><path class="cls-2" d="M236.15,240.81h-.22a50.6,50.6,0,0,1-5.85-.22h0c-.75-.06-1.48-.14-2.21-.25h0c-.66-.09-1.31-.2-1.94-.32-.37-.07-.74-.14-1.09-.23-.2,0-.39-.08-.58-.12-.57-.12-1.13-.26-1.67-.41a40.85,40.85,0,0,1-4.75-1.63V415.55h-3.34V232.29l2.43,1.24a33.71,33.71,0,0,0,5.66,2.25c.54.17,1.1.32,1.67.46A42,42,0,0,0,232,237.4c1.31.07,2.67.1,4.07.07v.71l0,1v1.67Z"/><path class="cls-4" d="M224.21,234.52V409.79c37,18.77,92.72-35.27,145,13.65V248.17C316.93,199.26,261.19,253.29,224.21,234.52Z"/><path class="cls-2" d="M224.83,241.46h0l-.6,0V246l1.67-.29v-4.37ZM370.48,247l-.09-.09-1.14-1.05c-31.42-28.46-63.92-21.09-92.69-14.35l-.61.14c-9.06,2.12-17.87,4.19-26.17,5-9,.84-17.38.16-24.81-3.61l-2.43-1.23v179l.91.47c15.37,7.8,33.77,3.49,53.25-1.08,28.3-6.62,60.33-14.13,90.86,14,.19.15.37.32.56.5l1.11,1.05,0,0v0l1.11-1.05c.19-.18.37-.35.56-.5V247.44ZM225.88,408.74V237.14a37.24,37.24,0,0,0,5.87,1.91h0c1.05.26,2.12.47,3.19.64l1.09.17h.1a65.51,65.51,0,0,0,17-.24h0c4.86-.62,9.83-1.59,14.91-2.72,2.83-.63,5.69-1.3,8.57-2,9-2.09,18.34-4.28,27.9-5.4,20.58-2.4,42.12.17,63,19.34l0,0v170.8l0,0C336.45,392.77,304.35,400.29,276,407,257.47,411.28,240,415.37,225.88,408.74Zm-1-167.28h0l-.6,0V246l1.67-.29v-4.37Z"/><path class="cls-2" d="M252.54,279.76H276.6L308,325.89V279.76h24.29v83.38H308l-31.22-45.78v45.78H252.54Z"/><path class="cls-2" d="M455.08,279.76h25.71v49.68a41.75,41.75,0,0,1-2.31,13.95,30,30,0,0,1-7.22,11.48,28.86,28.86,0,0,1-10.32,6.91,52.16,52.16,0,0,1-18,2.78,112.92,112.92,0,0,1-13.28-.85,34.89,34.89,0,0,1-12-3.38,30.28,30.28,0,0,1-8.84-7.19,26.24,26.24,0,0,1-5.49-9.61,49.83,49.83,0,0,1-2.39-14.09V279.76h25.71v50.86q0,6.83,3.78,10.66t10.49,3.83q6.66,0,10.44-3.78t3.78-10.71Z"/><path class="cls-2" d="M356.36,436.33a58.62,58.62,0,0,0-5.44-3.47,55.56,55.56,0,0,0-14-5.57c-1.44-.37-2.89-.68-4.38-1l3.38-15c1.7.39,3.4.85,5.09,1.35a71.47,71.47,0,0,1,17.32,7.83,81.59,81.59,0,0,1,10.74,8.1l-.07,0A14.52,14.52,0,0,0,356.36,436.33Z"/><path class="cls-2" d="M380.35,437.66c-2,1.47-3.92,3.06-5.81,4.75l-11-.36c-1.74-1.55-3.52-3-5.34-4.39a12.35,12.35,0,0,1,11.07-6.82h0A12.34,12.34,0,0,1,380.35,437.66Z"/><path class="cls-2" d="M406.7,426.5q-2.85.47-5.6,1.15a56.47,56.47,0,0,0-14,5.57c-1.68.95-3.33,2-4.94,3.13a14.55,14.55,0,0,0-12.82-7.74,79.87,79.87,0,0,1,10.34-7.75A71.65,71.65,0,0,1,397,413c2.1-.62,4.19-1.17,6.3-1.63Z"/><path class="cls-4" d="M369.22,428.72a.8.8,0,0,1-.13-.13l.21,0h.05A.63.63,0,0,1,369.22,428.72Z"/><path class="cls-4" d="M383.5,441.27c0,6.19-8.95,7.93-13.93,8l-.29,0-.28,0c-5-.05-14-1.79-14-8a10.86,10.86,0,0,1,1.35-4.94c.61.43,1.21.86,1.8,1.33a12.35,12.35,0,0,1,11.07-6.82h0a12.34,12.34,0,0,1,11.07,6.82c.6-.45,1.2-.89,1.82-1.31A10.71,10.71,0,0,1,383.5,441.27Z"/><path class="cls-2" d="M381.27,441.27c0,2.11-1.88,3.56-4.32,4.47a23.56,23.56,0,0,1-7.67,1.31h0c-4.46,0-12-1.54-12-5.78a8.39,8.39,0,0,1,.92-3.61,12.35,12.35,0,0,1,11.07-6.82h0a12.34,12.34,0,0,1,11.07,6.82A8.39,8.39,0,0,1,381.27,441.27Z"/><polygon class="cls-2" points="740.75 634.78 633.74 685.97 600.85 617.21 707.86 566.02 686.08 618.68 740.75 634.78"/><polygon class="cls-3" points="636.36 678.54 608.28 619.83 697.17 577.31 678.57 622.28 725.25 636.02 636.36 678.54"/><polygon class="cls-2" points="662.41 652.71 633.74 685.97 600.85 617.21 629.52 583.95 662.41 652.71"/><rect class="cls-2" x="443.12" y="626.23" width="213.29" height="76.22" transform="translate(-232.85 302.25) rotate(-25.56)"/><rect class="cls-3" x="517.22" y="563.27" width="65.08" height="202.15" transform="translate(911.85 -118.27) rotate(64.44)"/><path class="cls-2" d="M473.62,678.52l12.84-6.14,13.57,9,1.52-16.23,12.77-6.11-4.15,28.69,7.5,15.67L506.08,709l-7.49-15.67Z"/><path class="cls-2" d="M527.63,675.7q-4.38-9.16-1.71-16.7t11.77-11.9q9.33-4.47,16.78-1.87t11.77,11.63q3.13,6.55,2.94,11.81a17.47,17.47,0,0,1-3.25,9.58,23.38,23.38,0,0,1-9.28,7.31,26.68,26.68,0,0,1-11.44,3,17.53,17.53,0,0,1-9.78-3.16A23.66,23.66,0,0,1,527.63,675.7Zm11.59-5.48q2.7,5.67,6,7.14a8.83,8.83,0,0,0,11.52-5.45q.88-3.4-2.12-9.68-2.52-5.28-5.82-6.7a8.09,8.09,0,0,0-6.94.33,7.8,7.8,0,0,0-4.43,5.16Q536.47,664.52,539.22,670.22Z"/><path class="cls-2" d="M593.23,621.31l11.53-5.51,10.66,22.28a20.71,20.71,0,0,1,2,6.76,15.11,15.11,0,0,1-.77,6.7,14.41,14.41,0,0,1-3.15,5.31A26.2,26.2,0,0,1,606,662a56,56,0,0,1-6.14,2.46,17.34,17.34,0,0,1-6.13,1.07,15.15,15.15,0,0,1-5.51-1.33,13.13,13.13,0,0,1-4.52-3.13,24.71,24.71,0,0,1-4.09-5.81l-10.66-22.29,11.53-5.51,10.91,22.81a7.26,7.26,0,0,0,4,4,8.09,8.09,0,0,0,9.4-4.47,7.16,7.16,0,0,0-.61-5.61Z"/><polygon class="cls-2" points="0 634.78 107.01 685.97 139.9 617.21 32.89 566.02 54.67 618.69 0 634.78"/><polygon class="cls-3" points="104.39 678.54 132.47 619.83 43.58 577.32 62.18 622.28 15.5 636.02 104.39 678.54"/><polygon class="cls-2" points="78.34 652.71 107.01 685.97 139.9 617.21 111.23 583.95 78.34 652.71"/><rect class="cls-2" x="84.35" y="626.24" width="213.29" height="76.22" transform="translate(76.62 1346.07) rotate(-154.44)"/><rect class="cls-3" x="158.45" y="563.27" width="65.08" height="202.15" transform="translate(872.72 778.72) rotate(115.56)"/><path class="cls-2" d="M193.71,643.42,205.3,649l-17.86,37.42-11.59-5.53Z"/><polygon class="cls-2" points="490.39 778.36 437.11 752.2 437.11 675.98 490.39 702.14 490.39 778.36"/><polygon class="cls-2" points="250.36 778.36 303.64 752.2 303.64 675.98 250.36 702.14 250.36 778.36"/><rect class="cls-2" x="250.36" y="702.14" width="240.03" height="76.22"/><rect class="cls-3" x="337.84" y="625.81" width="65.08" height="228.89" transform="translate(1110.63 369.88) rotate(90)"/><path class="cls-2" d="M293.72,741q0-10.16,5.66-15.81t15.75-5.65q10.35,0,15.95,5.55t5.6,15.57q0,7.27-2.44,11.92a17.43,17.43,0,0,1-7.07,7.24,23.33,23.33,0,0,1-11.53,2.59A26.55,26.55,0,0,1,304,760.13a17.5,17.5,0,0,1-7.45-7.07A23.54,23.54,0,0,1,293.72,741Zm12.82.06c0,4.18.77,7.19,2.33,9a8.84,8.84,0,0,0,12.74.06q2.26-2.69,2.26-9.65,0-5.85-2.36-8.55a8.07,8.07,0,0,0-6.41-2.7,7.78,7.78,0,0,0-6.22,2.74C307.32,733.76,306.54,736.78,306.54,741Z"/><path class="cls-2" d="M344.11,720.19h12.17l4.38,23.21,6.41-23.21H379.2l6.42,23.18L390,720.19h12.11L393,761.65H380.41l-7.27-26.1-7.24,26.1H353.33Z"/><path class="cls-2" d="M412.07,720.19H446.4V729H424.91v6.59h19.94v8.46H424.91v8.17H447v9.39H412.07Z"/></g></g></svg>